/* XPM */
static char *jmol_icon[]={
"32 32 766 2",
"dW c #4a5247",
"hL c #5051b6",
"fO c #50528e",
"f2 c #5450ca",
"gj c #5453db",
"e7 c #5655c2",
"el c #574d50",
"eT c #57529f",
"id c #5754bd",
"fk c #575698",
"gw c #5855cb",
"eE c #5856c2",
"fy c #5856cc",
"hg c #595bd1",
"eq c #5a5c9a",
"gZ c #5b5be2",
"gN c #5c5cde",
"gi c #5c5f9a",
"er c #5d5bdd",
"fl c #5d5ce5",
"g0 c #5e5bd0",
"fP c #5e5ce9",
"gO c #5f5fe4",
"ht c #605ecd",
"ic c #605f9a",
"eU c #615ee3",
"gv c #6262ec",
"ix c #626382",
"dT c #626c62",
"em c #636263",
"hh c #6363e7",
"gM c #63689a",
"e# c #645fdd",
"eD c #6461ec",
"hX c #6467e2",
"hr c #646ae0",
"hM c #6564e5",
"dZ c #6765d3",
"dV c #676a6c",
"iz c #6864d0",
"hi c #6967e3",
"iA c #6a67e6",
"dY c #6a7098",
"cV c #6b4445",
"iH c #6b69e4",
"in c #6b69ee",
"hD c #6b6b6b",
"du c #6c67d4",
"es c #6c69f6",
"h8 c #6c6c6c",
"iy c #6c6cb0",
"dE c #6c6ddf",
"hs c #6c6dee",
"d. c #6c70e2",
"d0 c #6d68ed",
"h. c #6d6d6d",
"e6 c #6d6df2",
"i1 c #6e6bea",
"f1 c #6e6df9",
"fx c #6e6ff7",
"i4 c #6e71dc",
"cz c #6e7bc9",
"i2 c #6f6eeb",
"gk c #6f6ef6",
"iV c #6f6f6f",
"i3 c #6f70e7",
"dX c #6f7876",
"i0 c #706ee3",
"e. c #706eee",
"ie c #716cef",
"iU c #717171",
"eV c #7173f8",
"i5 c #7175d7",
"fQ c #7271fa",
"it c #727272",
"c2 c #7273da",
"hW c #7276f1",
"hO c #736fea",
"dF c #7371d6",
"fm c #7373f9",
"iI c #7375e1",
"hq c #7377eb",
"hN c #7471ef",
"iT c #747474",
"hV c #7477ea",
"io c #7478d7",
"c3 c #7575e8",
"hU c #7576df",
"cC c #7577cd",
"dD c #7577f1",
"gY c #7579f3",
"fH c #767676",
"ga c #777777",
"hP c #7874e4",
"cA c #7876e0",
"cB c #7877d9",
"d1 c #7975f5",
"iB c #7979f6",
"cW c #7a5a61",
"dv c #7a76f0",
"cy c #7a78cb",
"c9 c #7a7de9",
"hj c #7c78ed",
"if c #7c7afb",
"hY c #7c7ddc",
"gu c #7c7ef9",
"fd c #7d7d7d",
"iG c #7d7df0",
"hf c #7d85a1",
"dn c #7e7768",
"gP c #7e7df6",
"gF c #7e7e7e",
"d# c #7e80d9",
"cD c #7e81ce",
"im c #7f79fa",
"eN c #7f7a7c",
"eC c #7f7efc",
"hT c #7f7fe2",
"en c #7f8382",
"iC c #8081f9",
"dw c #817ff6",
"gb c #818181",
"c4 c #8185ed",
"hQ c #827fe7",
"gx c #8283b2",
"c8 c #8283e9",
"dp c #837d83",
"iF c #8384f3",
"e5 c #8385fb",
"f0 c #8386fb",
"ih c #8389e5",
"c5 c #838aec",
"gl c #8483f8",
"d9 c #8484f9",
"dC c #8486f2",
"fw c #8486f9",
"ig c #8489f2",
"ea c #8581df",
"et c #8583fc",
"iZ c #8685e0",
"iD c #8686fd",
"f3 c #8687b5",
"iu c #878787",
"dx c #878bf1",
"iE c #8888fa",
"hp c #888cf3",
"ep c #888f9a",
"hS c #8987eb",
"hE c #898989",
"gX c #898afc",
"hR c #8a85ef",
"c7 c #8a88ee",
"d2 c #8a88fb",
"eW c #8a8bf9",
"ik c #8b8aec",
"fR c #8b8cfd",
"il c #8c88f7",
"ii c #8c89ed",
"ij c #8c8beb",
"fe c #8c8c8b",
"c6 c #8d88f2",
"gQ c #8d8bf7",
"dq c #8e8e86",
"fn c #8e8ffc",
"iW c #8e9295",
"fz c #8f91bb",
"i6 c #8f94e8",
"hk c #908af7",
"h9 c #909090",
"g1 c #9091be",
"eB c #918efc",
"cx c #918fe5",
"iw c #919191",
"eo c #919a8f",
"gt c #9291fd",
"dB c #9293f3",
"dU c #929593",
"cU c #93443e",
"jy c #939596",
"dy c #9397f1",
"iv c #959595",
"ho c #9596f6",
"gm c #9696f9",
"d8 c #9798fb",
"hK c #979fab",
"eO c #989092",
"eu c #9897fe",
"h7 c #989898",
"h# c #999999",
"cE c #999ce4",
"fI c #9a9a9a",
".i c #9b342d",
"e4 c #9b97fe",
"jm c #9b99f0",
"gE c #9b9b9b",
"gW c #9b9dfe",
"d3 c #9b9efa",
"hl c #9c95fb",
"dt c #9c97e9",
"jl c #9c9af1",
"fZ c #9c9bf9",
".h c #9d3d3b",
"b3 c #9d86a5",
"fv c #9d9bf7",
"hw c #9d9d9d",
"ip c #9da3d1",
"dA c #9e9bf6",
"gG c #9e9e9e",
"jS c #9e9fa0",
"fS c #9ea0f9",
"cw c #9eaff5",
"hn c #9f9dfc",
"f8 c #9f9f9f",
"jn c #9f9fed",
"dz c #a09bf8",
"gA c #a0a0a0",
"eX c #a0a0fc",
"iY c #a0a2dc",
"fo c #a0a2f8",
"dG c #a19de3",
"hm c #a19dfe",
"gc c #a1a1a1",
"eS c #a1a3b4",
"i. c #a2a2a1",
"iO c #a2a2a2",
"iJ c #a2a6e7",
"gR c #a3a0fc",
"jb c #a3a3a3",
"ib c #a3a3a4",
"e8 c #a3a7c7",
"bA c #a487ad",
"fE c #a4a4a4",
"eP c #a5a0a4",
"c1 c #a5a2ee",
"fD c #a5a5a5",
"ff c #a5a5aa",
"jk c #a5a6f2",
"is c #a6a6a6",
"hF c #a6a6a9",
"gs c #a6a6fe",
"eA c #a7a4fd",
"g3 c #a7a7a7",
"cv c #a7a7df",
"b4 c #a7a8e0",
"jj c #a7aada",
"d7 c #a8a6fb",
"bI c #a8a7e2",
"jo c #a8aaee",
"cp c #a94335",
"i# c #a9a9a9",
"d4 c #a9acfa",
"b7 c #a9b4f3",
"cu c #aa87a9",
"dm c #aa8c81",
"gV c #aaabfd",
"jg c #aaaca9",
"jp c #aaade1",
"i7 c #aaade9",
".C c #ab484b",
"do c #aba5a3",
"fF c #ababab",
"gn c #ababfa",
"cX c #ac928d",
"c0 c #aca1d9",
"ev c #acadfc",
"b8 c #acaef3",
".g c #ad5e62",
"eQ c #adabac",
"b9 c #adaef3",
"eR c #adb0a6",
"ia c #aeaeaf",
".B c #af6161",
"cG c #afa7e4",
"gS c #afaafd",
"da c #afacf0",
"e3 c #afacfd",
"h1 c #afafaf",
"ba c #b0aceb",
"db c #b0aed9",
"bD c #b0b5f8",
"bb c #b1aee3",
"ha c #b1b1b4",
"fJ c #b1b1b7",
"hu c #b1b4dc",
"cb c #b2abe8",
"cF c #b2adf7",
"b# c #b2b0e4",
"fu c #b2b0f7",
"fY c #b2b0fa",
"ds c #b2b1cb",
"bH c #b2b2ee",
"hG c #b2b4b6",
"d6 c #b3b1fc",
"f7 c #b3b3b3",
"fj c #b3b4bc",
"bc c #b3b4d4",
"bG c #b3b4f0",
"jC c #b3b5da",
"c. c #b4b4f7",
"jq c #b4b5d5",
"i8 c #b4b7d9",
"fT c #b4b7f6",
"iX c #b4b8cd",
"iK c #b4b9d6",
"jD c #b5afde",
"ca c #b5b3fb",
"bB c #b6a1df",
"jF c #b6afde",
"jE c #b6b0e3",
"d5 c #b6b1fd",
"bC c #b6b2f7",
"fg c #b6b4bf",
"eY c #b6b4fe",
"b. c #b6b5de",
"gr c #b6b5fd",
"iQ c #b6b6b6",
"bE c #b6b7f4",
"fp c #b6b7f7",
"jh c #b6babb",
".j c #b74c42",
"ez c #b7b6fc",
"gU c #b7b6fd",
"bF c #b7b7f4",
"c# c #b7b7fc",
"gH c #b7b8b9",
"gd c #b7b8ba",
"gT c #b8b5fd",
"b6 c #b9b5fa",
"ji c #b9bdd4",
"jB c #b9bfd6",
"ek c #bab2b5",
"jG c #bab6d8",
"dS c #bab9b2",
"go c #bab9fb",
"eF c #babcdb",
"b5 c #bcb1f9",
"iP c #bcbcbc",
"ew c #bcbcfd",
"dr c #bcbdb6",
"g9 c #bebebe",
"hZ c #bec0de",
"cT c #bf5754",
"e2 c #bfbdfb",
"jd c #bfbfbf",
"hb c #bfc2bf",
"fN c #bfc2c6",
"bd c #bfc2d1",
"fG c #c0c0c0",
"cr c #c15955",
"jc c #c1c1c1",
"fK c #c1c3c9",
"fX c #c2c0fb",
"hH c #c3c2c0",
"iN c #c3c3c3",
"fU c #c3c3f9",
"cq c #c4534f",
"bJ c #c4c1e2",
"ft c #c4c1f9",
"gq c #c4c2fc",
"je c #c4c4c4",
"hJ c #c4c8c0",
"eZ c #c6c3fd",
"fh c #c6c5bf",
".D c #c75052",
"gp c #c7c3fc",
"ey c #c7c4fd",
"fq c #c7c5f9",
".f c #c8a3a9",
"hI c #c8c4d4",
"jv c #c8c8c8",
"gI c #c8ccc3",
"cc c #c9c3e3",
"fi c #c9c5c9",
"eM c #c9c7c7",
"h2 c #c9c9c9",
"ex c #cac6fd",
"eb c #cac9df",
"g# c #cacaca",
"jf c #cbcbcb",
"ge c #cbcfc8",
"aC c #cc8274",
"a9 c #ccb3cf",
".E c #cd4f4f",
".5 c #cd7b6d",
"ja c #cdcdcd",
"a# c #ce8378",
"b0 c #cf7068",
"cY c #cfbfb4",
"e1 c #cfcbfa",
"f9 c #cfcfcf",
".W c #d06862",
".I c #d06963",
"az c #d09d89",
"fW c #d0cbfd",
"g4 c #d0d0d0",
"cH c #d1cde7",
"gB c #d1d1d1",
"co c #d2554e",
"a5 c #d28075",
"ar c #d28880",
".U c #d2a9a6",
"e0 c #d2cdf9",
"fs c #d2cdfc",
"hx c #d2d2d2",
"jx c #d2d3d6",
"cS c #d36766",
"#0 c #d37b73",
"#J c #d3887f",
".M c #d3abb0",
".o c #d3afb2",
"#z c #d3bbb9",
"fV c #d3ccff",
"g. c #d3d3d3",
"#N c #d4877d",
"bz c #d4a4ac",
"#e c #d4acaa",
"iS c #d4d4d4",
"gh c #d4d6dc",
"bR c #d5928a",
"cZ c #d5c6d3",
"fr c #d5cffd",
"jH c #d5d3e2",
"hc c #d5d5cd",
"j3 c #d5d5d5",
"ck c #d68274",
"bn c #d6968c",
"b2 c #d6a0ad",
"jO c #d6d6d6",
"fL c #d6d7cb",
"#X c #d7afad",
"j7 c #d7d7d7",
"he c #d7dbd5",
"a2 c #d8887a",
"aU c #d89c91",
"di c #d8b2af",
"h6 c #d8d8d8",
".0 c #d9564e",
"#C c #d97e75",
"cs c #d9968b",
"hC c #d9d9d9",
".H c #da6860",
"cM c #dab5b3",
"ir c #dadada",
"jR c #dadadc",
"#h c #db6b60",
"#q c #db877a",
".A c #dbacad",
".9 c #dbb3b7",
"gD c #dbdbdb",
"jA c #dbe1e5",
"bX c #dc5f4f",
"#m c #dc7162",
".k c #dc756f",
"cl c #dc766c",
"fC c #dcdcdc",
"#7 c #dd8e8a",
".V c #dda09e",
"a8 c #dda5b6",
"hd c #ddd8ea",
"g5 c #dddddd",
"bx c #de8f86",
"dH c #dedce7",
"gC c #dedede",
".Z c #df5950",
".G c #df695e",
"#g c #df8f8a",
"#r c #df9e8d",
"bN c #dfabb3",
"ct c #dfaca6",
"#u c #dfadaf",
"#8 c #dfaf9f",
"dh c #dfc6c5",
"jw c #dfdfdf",
".F c #e0635c",
"bw c #e07572",
"dl c #e0aba9",
"#Q c #e0aeaa",
"ad c #e0c6c1",
"fM c #e0dbe6",
"j6 c #e0e0e0",
"gL c #e0e2e6",
"iq c #e0e4ea",
".L c #e1aeaf",
".z c #e1cbc9",
"hy c #e1e1e1",
".n c #e2a4a7",
"ao c #e2aaab",
"cN c #e2ada9",
"dj c #e2b0ae",
"bm c #e2b2a7",
"aJ c #e2e1f4",
"be c #e2e7e9",
"#k c #e37461",
"bS c #e39083",
"jT c #e3e4e1",
"cf c #e4c1c5",
"aG c #e4ced0",
"aK c #e4e4f2",
"#l c #e57867",
"cR c #e58b85",
"h5 c #e5e5e5",
"gJ c #e5e6d5",
"bu c #e67369",
"aR c #e6a9af",
"bj c #e6a9b1",
"#R c #e6c8ca",
"jP c #e6e6e6",
"i9 c #e6eaf1",
"dk c #e7a9aa",
"ac c #e7acab",
"j5 c #e7e7e7",
"gf c #e7e9d7",
"dP c #e8d0d1",
"dO c #e8d9d8",
".e c #e8dfe2",
"g8 c #e8e8e8",
"jr c #e8e8f2",
".1 c #e96c62",
"#G c #e98a7c",
"aV c #e9a099",
"b1 c #e9a297",
"aQ c #e9cdd1",
"aI c #e9e3f3",
"jX c #e9e6f1",
"jQ c #e9e9e9",
"jz c #e9eeeb",
"aY c #eaa393",
"an c #ead3d4",
"bi c #ead5db",
".T c #ead9d6",
"dR c #eadcd9",
"h3 c #eaeaea",
".X c #eb6156",
"bY c #eb645d",
"bt c #eb7368",
"#D c #eb7f79",
".4 c #eb8279",
"av c #eba898",
"cg c #ebaaac",
"aL c #ebedf3",
"#4 c #ec9c90",
"aF c #ecaaaf",
"bM c #ece3e7",
"jY c #eceaf5",
"jW c #ecedf3",
"g2 c #eceff0",
"bZ c #ed6d69",
"bW c #ed6f64",
"cm c #ed726c",
"bV c #ed766b",
"#I c #ed897e",
"#A c #edb2b0",
"dQ c #edd6d8",
"g6 c #ededed",
"aH c #edeff6",
"cn c #ee6a65",
"#n c #ee8b7f",
"bq c #ee9687",
"#f c #eeaeac",
".p c #eedee0",
"#W c #eee3e1",
"hB c #eeeeee",
"br c #ef8a7c",
"bT c #ef9387",
"dN c #efe6e6",
"h4 c #efefef",
".Y c #f0665c",
"as c #f09a99",
"#M c #f09c95",
"#3 c #f0a098",
"bo c #f0a699",
".8 c #f0b0b4",
"au c #f0b1a3",
".6 c #f0b2a0",
"aD c #f0c6b3",
"#v c #f0d8db",
"#d c #f0e9e6",
"#1 c #f18e8d",
".J c #f1a6a0",
"cQ c #f1b0a2",
"j4 c #f1f1f1",
"gy c #f1f2f5",
"hv c #f1f3f1",
"eh c #f1fefe",
"#j c #f27968",
"#H c #f28c7f",
"#F c #f29085",
"ay c #f2908c",
".l c #f29594",
"ch c #f2b4af",
"gK c #f2edf7",
"g7 c #f2f2f2",
"aM c #f2f5f5",
"a1 c #f38680",
".m c #f3a8ab",
"#Y c #f3b4ae",
".K c #f3b7b0",
"hz c #f3f3f3",
"bs c #f48175",
"by c #f4b6b0",
"cP c #f4b9ac",
"bQ c #f4c1bc",
"ej c #f4f2f4",
"jI c #f4f2f6",
"bK c #f4f2f9",
"iR c #f4f4f4",
"ce c #f4f7f7",
".d c #f4f9f8",
"#c c #f4fcf8",
"eg c #f4fefe",
".3 c #f58379",
"cO c #f5b3ae",
".7 c #f5b6b2",
"#P c #f5beb3",
".N c #f5e7e8",
"gg c #f5f0f7",
"fc c #f5f3f4",
"jZ c #f5f3f9",
"#y c #f5f4f1",
".2 c #f68175",
"a4 c #f68887",
"bU c #f68a7f",
"#p c #f6958b",
"aZ c #f69e91",
"aw c #f6a296",
"bp c #f6aa9b",
"aA c #f6b2a4",
"#t c #f6b4b3",
"a7 c #f6b5ae",
"cj c #f6b9b0",
"aa c #f6cbb9",
".y c #f6efec",
"cd c #f6f4fb",
"ju c #f6f6f6",
"fA c #f6f8f9",
"jV c #f6f9fa",
"iL c #f6faf7",
".R c #f6fdfb",
".a c #f6fefc",
"#i c #f77564",
"bv c #f7847f",
"#5 c #f79a90",
"a. c #f79f9b",
"aX c #f7b7a8",
"ab c #f7bfb7",
"dg c #f7ebed",
"hA c #f7f7f7",
"f4 c #f7f9fc",
".b c #f7fefc",
"a3 c #f89e95",
"#K c #f8b1a9",
"ap c #f8b9af",
"a6 c #f8c0ad",
"cL c #f8eeed",
"f5 c #f8f8f8",
"js c #f8faf9",
"cK c #f8fafa",
"eG c #f8fbf3",
"e9 c #f8fcf5",
"#x c #f8fdfd",
"ei c #f8fefe",
"#6 c #f9948e",
"aE c #f9b8b2",
"#. c #f9edee",
"fa c #f9f6f8",
"f# c #f9f9f7",
"f6 c #f9f9f9",
"h0 c #f9fbf8",
"#T c #f9fdfe",
"#a c #f9fefe",
"aB c #fa9593",
"bO c #faafb2",
"bk c #fab4b2",
"#B c #fab5b0",
"aS c #fab6b1",
"bP c #fabfb9",
"fb c #faf6f9",
"dc c #faf9f8",
"ec c #fafaf2",
"fB c #fafafa",
".S c #fafbf8",
".c c #fafbf9",
"bf c #fafbfa",
"eL c #fafcfd",
"aN c #fafdf6",
"jU c #fafdfa",
"a0 c #fb8f87",
"#9 c #fbbcb0",
"#Z c #fbbeb3",
"ci c #fbbfbb",
"bl c #fbc5ba",
"jJ c #fbf8f9",
"#S c #fbf8fb",
"bL c #fbfaf8",
"ae c #fbfbf7",
".x c #fbfbf8",
"af c #fbfbf9",
"gz c #fbfbfb",
"aj c #fbfcfd",
"j. c #fbfdf5",
".r c #fbfefc",
"ef c #fbfeff",
"#E c #fc8f89",
"#o c #fc988f",
"aW c #fcb7ac",
"aq c #fcc5b5",
"#O c #fcc5b6",
"aT c #fcc6b8",
"dM c #fcf7f8",
"df c #fcf7fb",
"dK c #fcf7fc",
"#w c #fcf9fb",
"de c #fcfafd",
"jK c #fcfbf9",
".q c #fcfbfa",
"f. c #fcfcf9",
".w c #fcfcfc",
"eK c #fcfcfd",
"ag c #fcfdf6",
"ax c #fd948f",
"#2 c #fda19f",
"at c #fdb5ae",
"#s c #fdbdb3",
"dL c #fdf8fb",
"dJ c #fdfafd",
"dd c #fdfbf4",
".O c #fdfbfa",
".# c #fdfbfd",
"## c #fdfcfc",
"j0 c #fdfcfe",
"dI c #fdfdf4",
"iM c #fdfdf8",
"aO c #fdfdfa",
"ai c #fdfdfb",
"j2 c #fdfdfc",
".P c #fdfdfd",
"ak c #fdfdfe",
".Q c #fdfdff",
"ah c #fdfef8",
"ee c #fdfefe",
"#L c #feaea8",
"j1 c #fefcfd",
"cI c #fefdfa",
"eJ c #fefdfd",
"al c #fefdfe",
"jM c #fefdff",
"j# c #fefef6",
"eH c #fefef9",
"cJ c #fefefa",
"eI c #fefefb",
"jL c #fefefd",
"jN c #fefefe",
".s c #fefeff",
"#U c #fefffe",
"#b c #feffff",
"Qt c #fff7fe",
"ed c #fffcfe",
".t c #fffdff",
"jt c #fffefb",
"am c #fffefd",
"aP c #fffefe",
".u c #fffeff",
"bh c #fffffa",
"bg c #fffffb",
"#V c #fffffe",
".v c #ffffff",
"Qt.#.a.b.c.d.e.f.g.h.i.j.k.l.m.n.o.p.q.r.s.t.u.v.v.v.v.v.v.v.v.v",
".#.w.x.y.z.A.B.C.D.E.F.G.H.I.J.K.L.M.N.O.P.Q.u.v.v.v.v.v.v.v.v.v",
".R.S.T.U.V.W.X.Y.Z.0.1.2.3.4.5.6.7.8.9#.###a#b.v.v.v.v.v.v.v.v.v",
"#c#d#e#f#g#h#i#j#k#l#m#n#o#p#q#r#s#t#u#v#w#x#b.v.v.v.v.v.v.v.v.v",
"#y#z#A#B#C#D#E#F#G#H#I#J#K#L#M#N#O#P#Q#R#S#T#U#V#V.v.v.v.v.v.v.v",
"#W#X#Y#Z#0#1#2#3#4#5#6#7#8#9a.a#aaabacadaeafagahaiajakal.u.u.uam",
"anaoapaqarasatauavawaxayazaAaBaCaDaEaFaGaHaIaJaKaLaMaNaOaPaPaPaP",
"aQaRaSaTaUaVaWaXaYaZa0a1a2a3a4a5a6a7a8a9b.b#babbbcbdbebfbgbhbgaP",
"bibjbkblbmbnbobpbqbrbsbtbubvbwbxbybzbAbBbCbDbEbFbGbHbIbJbKbLbhaP",
"bMbNbObPbQbRbSbTbUbVbWbXbYbZb0b1b2b3b4b5b6b7b8b9c.c#cacbcccdbgam",
"cecfcgchcicjckclcmcncocpcqcrcsctcucvcwcxcyczcAcBcCcDcEcFcGcHcIcJ",
"cKcLcMcNcOcPcQcRcScTcUcVcWcXcYcZc0c1c2c3c4c5c6c7c8c9d.d#dadbdcdd",
"dedfdgdhdidjdkcgdldmdndodpdqdrdsdtdudvdwdxdydzdAdBdCdDdEdFdGdHdI",
"dJdKdLdMdNdOdPdQdRdSdTdUdVdWdXdYdZd0d1d2d3d4d5d6d7d8d9e.e#eaebec",
"ededaleeefegeheiejekelemeneoepeqereseteuevewexeyezeAeBeCeDeEeFeG",
"eHeHeIeIeJeKeLeKeMeNeOePeQeReSeTeUeVeWeXeYeZe0e1e2e3e4e5e6e7e8e9",
"f.f.aff#.qfafbfcfdfefffgfhfifjfkflfmfnfofpfqfrfsftfufvfwfxfyfzfA",
"fBfBfBfCfDfEfFfGfHfIfJfKfLfMfNfOfPfQfRfSfTfUfVfWfXfYfZf0f1f2f3f4",
"f5f6f7f8f9g.g#gagbgcgdgegfggghgigjgkglgmgngogpgqgrgsgtgugvgwgxgy",
"gzfCgAgBfCgCgDgEgFgGgHgIgJgKgLgMgNgOgPgQgRgSgTgUgVgWgXgYgZg0g1g2",
"fBg3g4g5g6g7g8g9h.h#hahbhchdhehfhghhhihjhkhlhmhnhohphqhrhshthuhv",
".whwhxhyhzhAhBhChDhEhFhGhHhIhJhKhLhMhNhOhPhQhRhShThUhVhWhXhYhZh0",
"gzh1h2gDh3h4h5h6h7h8h9i.i#iafFibicidieifigihiiijikiliminioipiq##",
"fBgCgEg.g5gCirg.hwisitiuivgEh#iwixiyiziAiBiCiDiEiFiGiHiIiJiKiLiM",
"fBgziNiOiPfGiQgAh6iRiSiTiUiTiTiViWiXiYiZi0i1i2i3i4i5i6i7i8i9j.j#",
".v.vf5h6fGf7iNhCfBfBjajbjcjdjejfjgjhjijjjkjljljmjnjojpjqjrjseHjt",
".v.v.PfBjuf5f5f6fBf6fEjvjwh3g8hyjxjyjzjAjBjCjDjEjFjGjHjIjJjKjLjM",
".v.vjN.P.P.PjN.PgziRgGjOjPg7jujQjRjSjTjUjVjWjXjXjYjZj0j1##j2.s.s",
".v.v.v.v.v.v.v.vfBg7f8j3h5j4hzg8h6gAj5jN.v.v.v.v.v.v.v.v.v.v.v.v",
".v.v.v.v.v.v.v.vfBfBfFjefCjPg8j6f9gEf5jN.v.v.v.v.v.v.v.v.v.v.v.v",
".v.v.v.v.v.v.v.v.wgzirgcjej3j7g#f8g4fBjN.v.v.v.v.v.v.v.v.v.v.v.v",
".v.v.v.v.v.v.v.vgzgzfBhCg3h7h7jbjOju.wjN.v.v.v.v.v.v.v.v.v.v.v.v"};
